<svg width="7" height="14" viewBox="0 0 7 14" fill="none" xmlns="http://www.w3.org/2000/svg">
<g id="Icon">
<path id="Vector" d="M5.16537 7.01925C5.16537 7.15645 5.11392 7.27649 5.01103 7.37939L2.08495 10.299C1.99492 10.3891 1.88345 10.4341 1.75054 10.4341C1.61763 10.4341 1.50402 10.388 1.4097 10.2958C1.31538 10.2036 1.26822 10.0911 1.26822 9.95819C1.26822 9.82529 1.31752 9.70953 1.41613 9.61092L4.01423 7.01925L1.41613 4.42758C1.31752 4.32898 1.26822 4.21322 1.26822 4.08031C1.26822 3.94741 1.31538 3.83487 1.4097 3.74269C1.50402 3.65051 1.61763 3.60442 1.75054 3.60442C1.88345 3.60442 1.99492 3.64944 2.08495 3.73947L5.01103 6.65912C5.11392 6.76202 5.16537 6.88206 5.16537 7.01925Z" fill="#0066CC"/>
</g>
</svg>
