<svg width="16" height="44" viewBox="0 0 16 44" fill="none" xmlns="http://www.w3.org/2000/svg">
<g id="SVG">
<path id="Vector" d="M14.798 27.202L10.928 23.332C11.629 22.403 12.05 21.251 12.05 20C12.05 16.94 9.561 14.45 6.5 14.45C3.44 14.45 0.949997 16.94 0.949997 20C0.949997 23.061 3.44 25.55 6.5 25.55C7.751 25.55 8.903 25.129 9.832 24.428L13.702 28.298C13.853 28.449 14.052 28.526 14.25 28.526C14.448 28.526 14.646 28.45 14.798 28.298C15.101 27.995 15.101 27.505 14.798 27.202ZM2.05 20C2.05 17.546 4.047 15.55 6.5 15.55C8.954 15.55 10.95 17.547 10.95 20C10.95 22.453 8.954 24.45 6.5 24.45C4.046 24.45 2.05 22.454 2.05 20Z" fill="black" fill-opacity="0.8"/>
</g>
</svg>
