<svg width="15" height="44" viewBox="0 0 15 44" fill="none" xmlns="http://www.w3.org/2000/svg">
<g id="SVG">
<path id="Vector" d="M11.8535 16.0283H10.833C10.7236 15.2173 10.3272 14.4723 9.71579 13.9284C9.10433 13.3845 8.31824 13.0776 7.5 13.0635C6.68176 13.0776 5.89567 13.3845 5.28421 13.9284C4.67275 14.4723 4.2764 15.2173 4.167 16.0283H3.147C2.58579 16.0286 2.04766 16.2517 1.65075 16.6485C1.25383 17.0452 1.03058 17.5833 1.03 18.1445V25.86C1.0305 26.4211 1.2536 26.9591 1.65034 27.356C2.04709 27.7528 2.58506 27.976 3.1462 27.9767H11.8532C12.4144 27.9762 12.9526 27.753 13.3494 27.3562C13.7463 26.9593 13.9695 26.4212 13.97 25.86V18.1445C13.9694 17.5834 13.7462 17.0454 13.3494 16.6486C12.9526 16.2519 12.4146 16.0288 11.8535 16.0283ZM7.5 14.1631C8.02741 14.1745 8.53512 14.3656 8.93918 14.7048C9.34325 15.0439 9.61948 15.5108 9.7222 16.0283H5.2778C5.38052 15.5108 5.65675 15.0439 6.06082 14.7048C6.46488 14.3656 6.97259 14.1745 7.5 14.1631ZM12.87 25.86C12.8697 26.1296 12.7625 26.388 12.572 26.5787C12.3814 26.7693 12.123 26.8767 11.8534 26.8771H3.1465C2.87694 26.8766 2.61856 26.7693 2.42801 26.5786C2.23746 26.388 2.13029 26.1295 2.13 25.86V18.1445C2.13032 17.875 2.23752 17.6166 2.4281 17.426C2.61869 17.2354 2.87708 17.1282 3.1466 17.1279H11.8536C12.1231 17.1282 12.3814 17.2355 12.572 17.4261C12.7625 17.6166 12.8697 17.875 12.87 18.1445V25.86Z" fill="black" fill-opacity="0.8"/>
</g>
</svg>
